<?xml version="1.0" encoding="utf-8"?>
<!-- Generator: Adobe Illustrator 17.1.0, SVG Export Plug-In . SVG Version: 6.00 Build 0)  -->
<!DOCTYPE svg PUBLIC "-//W3C//DTD SVG 1.1//EN" "http://www.w3.org/Graphics/SVG/1.1/DTD/svg11.dtd">
<svg version="1.1" id="Layer_1" xmlns="http://www.w3.org/2000/svg" xmlns:xlink="http://www.w3.org/1999/xlink" x="0px" y="0px"
	 viewBox="0 0 38 10" enable-background="new 0 0 38 10" xml:space="preserve">
<g>
	<g>
		<path d="M37.1,4.7c-0.1-0.2-0.2-0.3-0.5-0.3H26.2c-0.3,0-0.5,0.1-0.5,0.3c-0.1,0.2-0.1,0.4-0.1,0.7c0,0.3,0,0.5,0.1,0.7
			c0.1,0.2,0.2,0.3,0.5,0.3h10.4c0.3,0,0.5-0.1,0.5-0.3c0.1-0.2,0.1-0.4,0.1-0.7C37.2,5.1,37.2,4.9,37.1,4.7z M6.8,5l3-3
			C10,1.8,10.1,1.6,10,1.5C9.9,1.3,9.7,1.1,9.5,0.9C9.3,0.7,9.1,0.5,8.9,0.4c-0.2-0.1-0.4,0-0.6,0.2l-3,3l-3-3
			C2.2,0.4,2,0.3,1.9,0.4C1.7,0.5,1.5,0.7,1.3,0.9C1.1,1.1,1,1.3,0.9,1.4C0.8,1.6,0.8,1.8,1,2l3,3L1,8C0.8,8.1,0.8,8.3,0.9,8.5
			C1,8.7,1.1,8.9,1.3,9.1c0.2,0.2,0.4,0.4,0.6,0.4c0.2,0.1,0.4,0,0.6-0.2l3-3l3,3C8.6,9.6,8.8,9.7,9,9.6c0.2-0.1,0.4-0.2,0.6-0.4
			C9.7,8.9,9.9,8.7,10,8.6c0.1-0.2,0-0.4-0.2-0.6L6.8,5z"/>
	</g>
</g>
</svg>
